HIERARCHY
ROOT Hips
{
	OFFSET 0.000000 0.000000 0.000000 
	CHANNELS 6 Xposition Yposition Zposition Zrotation Yrotation Xrotation
	JOINT LeftUpLeg
	{
		OFFSET 1.363060 -1.794630 0.839290 
		CHANNELS 3 Zrotation Yrotation Xrotation
		JOINT LeftLeg
		{
			OFFSET 2.448110 -6.726130 0.000000 
			CHANNELS 3 Zrotation Yrotation Xrotation
			JOINT LeftFoot
			{
				OFFSET 2.562200 -7.039590 0.000000 
				CHANNELS 3 Zrotation Yrotation Xrotation
				JOINT LeftToeBase
				{
					OFFSET 0.157640 -0.433110 2.322550 
					CHANNELS 3 Zrotation Yrotation Xrotation
					End Site
					{
						OFFSET 0.000000 0.000000 0.000000 
					}
				}
			}
		}
	}
	JOINT RightUpLeg
	{
		OFFSET -1.305520 -1.794630 0.839290 
		CHANNELS 3 Zrotation Yrotation Xrotation
		JOINT RightLeg
		{
			OFFSET -2.542530 -6.985550 0.000000 
			CHANNELS 3 Zrotation Yrotation Xrotation
			JOINT RightFoot
			{
				OFFSET -2.568260 -7.056230 0.000000 
				CHANNELS 3 Zrotation Yrotation Xrotation
				JOINT RightToeBase
				{
					OFFSET -0.164730 -0.452590 2.363150 
					CHANNELS 3 Zrotation Yrotation Xrotation
					End Site
					{
						OFFSET 0.000000 0.000000 0.000000 
					}
				}
			}
		}
	}
	JOINT Spine
	{
		OFFSET 0.028270 2.035590 -0.193380 
		CHANNELS 3 Zrotation Yrotation Xrotation
		JOINT Spine1
		{
			OFFSET 0.056720 2.048850 -0.042750 
			CHANNELS 3 Zrotation Yrotation Xrotation
			JOINT Neck1
			{
				OFFSET -0.054170 1.746240 0.172020 
				CHANNELS 3 Zrotation Yrotation Xrotation
				JOINT Head
				{
					OFFSET 0.104070 1.761360 -0.123970 
					CHANNELS 3 Zrotation Yrotation Xrotation
					End Site
					{
						OFFSET 0.000000 0.000000 0.000000 
					}
				}
			}
			JOINT LeftArm
			{
				OFFSET 3.362410 1.200890 -0.311210 
				CHANNELS 3 Zrotation Yrotation Xrotation
				JOINT LeftForeArm
				{
					OFFSET 4.983000 -0.000000 -0.000000 
					CHANNELS 3 Zrotation Yrotation Xrotation
					JOINT LeftHand
					{
						OFFSET 3.483560 -0.000000 -0.000000 
						CHANNELS 3 Zrotation Yrotation Xrotation
						JOINT LeftHandIndex1
						{
							OFFSET 0.715260 -0.000000 -0.000000 
							CHANNELS 3 Zrotation Yrotation Xrotation
							End Site
							{
								OFFSET 0.000000 0.000000 0.000000 
							}
						}
					}
				}
			}
			JOINT RightArm
			{
				OFFSET -3.136600 1.374050 -0.404650 
				CHANNELS 3 Zrotation Yrotation Xrotation
				JOINT RightForeArm
				{
					OFFSET -5.241900 -0.000000 -0.000000 
					CHANNELS 3 Zrotation Yrotation Xrotation
					JOINT RightHand
					{
						OFFSET -3.444170 -0.000000 -0.000000 
						CHANNELS 3 Zrotation Yrotation Xrotation
						JOINT RightHandIndex1
						{
							OFFSET -0.622530 -0.000000 -0.000000 
							CHANNELS 3 Zrotation Yrotation Xrotation
							End Site
							{
								OFFSET 0.000000 0.000000 0.000000 
							}
						}
					}
				}
			}
		}
	}
}
MOTION
Frames: 9
Frame Time: 0.041667
-0.645363 18.311165 5.685213 -0.566980 -3.323614 0.974525 -13.717987 -9.268529 -3.047875 0.501826 6.407577 21.374296 -1.339723 11.224726 -19.655119 7.872400 -16.024600 -52.102000 2.887785 1.905277 -1.653629 0.053055 0.721874 1.419258 0.310415 -0.882311 5.785003 0.000000 0.000000 0.000000 -8.171776 3.076803 23.510812 0.133680 2.009953 -13.915459 5.119307 -5.362359 30.567093 0.543900 -1.678600 9.977800 -92.260426 6.710494 27.784392 23.716643 -32.772093 -5.896054 0.505878 -0.058862 10.954352 -7.125000 0.000000 0.000000 96.060898 -13.589143 20.250076 -34.575194 42.142246 -10.418026 0.918930 -3.128597 11.128457 7.125000 0.000000 0.000000 
-0.647128 18.311557 5.681291 -0.602073 -3.287731 1.035781 -13.667017 -9.308141 -3.122906 0.502802 6.414655 21.384673 -1.333747 11.203939 -19.661803 7.852900 -16.010000 -52.031000 2.889978 1.904206 -1.656138 0.053032 0.719999 1.418687 0.309854 -0.884116 5.784251 0.000000 0.000000 0.000000 -8.122505 3.065488 23.389638 0.122993 2.007262 -13.905319 5.107607 -5.381662 30.621545 0.537600 -1.687200 9.981400 -92.295749 6.690733 27.644749 23.679199 -32.730109 -5.879718 0.504631 -0.064868 11.104667 -7.125000 0.000000 0.000000 96.085441 -13.630150 20.165970 -34.615384 42.167373 -10.439102 0.915458 -3.126536 11.178317 7.125000 0.000000 0.000000 
-0.647912 18.311851 5.679820 -0.612531 -3.295228 1.059539 -13.651270 -9.310371 -3.158867 0.503003 6.416319 21.386951 -1.336420 11.210166 -19.653071 7.861300 -16.016300 -52.061600 2.890180 1.904037 -1.656501 0.053056 0.719732 1.418588 0.309777 -0.884372 5.784128 0.000000 0.000000 0.000000 -8.113884 3.083969 23.385171 0.121937 2.017705 -13.884688 5.069180 -5.388106 30.615434 0.524200 -1.694000 9.977500 -92.301450 6.653298 27.622403 23.636118 -32.685025 -5.862022 0.506586 -0.066332 11.120158 -7.125000 0.000000 0.000000 96.111492 -13.634194 20.102125 -34.600534 42.173029 -10.461852 0.861824 -3.130787 11.198537 7.125000 0.000000 0.000000 
-0.647520 18.312440 5.678252 -0.618358 -3.313266 1.057746 -13.645235 -9.351760 -3.146528 0.502829 6.419119 21.392602 -1.339154 11.226043 -19.667686 7.865200 -16.019200 -52.075700 2.889225 1.904421 -1.656087 0.053137 0.720210 1.418837 0.309935 -0.883816 5.784166 0.000000 0.000000 0.000000 -8.160775 3.101172 23.387242 0.116623 2.020720 -13.874257 5.075475 -5.385893 30.615576 0.523600 -1.690800 9.976000 -92.287769 6.661665 27.642031 23.630318 -32.678320 -5.858594 0.507041 -0.063992 11.069696 -7.125000 0.000000 0.000000 96.129635 -13.630712 20.090666 -34.563358 42.179226 -10.503679 0.766825 -3.137964 11.124954 7.125000 0.000000 0.000000 
-0.647226 18.313224 5.675310 -0.612071 -3.307587 1.073542 -13.638508 -9.351590 -3.166379 0.502320 6.421896 21.391038 -1.347122 11.243299 -19.633650 7.892400 -16.039600 -52.174300 2.888806 1.904348 -1.657351 0.053352 0.719642 1.418879 0.309780 -0.884138 5.783544 0.000000 0.000000 0.000000 -8.264462 3.106456 23.272914 0.121466 2.015924 -13.881097 5.123345 -5.403758 30.721859 0.532800 -1.689700 9.998900 -92.249804 6.737536 27.729131 23.768468 -32.811662 -5.902981 0.491094 -0.052559 11.231336 -7.125000 0.000000 0.000000 96.158334 -13.652683 20.075074 -34.552630 42.186003 -10.530342 0.714686 -3.139248 11.036591 7.125000 0.000000 0.000000 
-0.647128 18.312734 5.673251 -0.595136 -3.304721 1.082520 -13.648001 -9.318878 -3.191822 0.501578 6.423616 21.389740 -1.352547 11.259244 -19.620776 7.898900 -16.044400 -52.197800 2.888907 1.904282 -1.658577 0.053460 0.719101 1.418865 0.309630 -0.884513 5.783079 0.000000 0.000000 0.000000 -8.322613 3.113674 23.194115 0.117306 2.016105 -13.899524 5.246763 -5.445006 30.952701 0.563800 -1.688100 10.070000 -92.207807 6.821048 27.882960 24.031273 -33.070946 -5.989521 0.458355 -0.032604 11.634639 -7.125000 0.000000 0.000000 96.201133 -13.668297 20.029002 -34.557356 42.188089 -10.532721 0.698868 -3.135575 10.997424 7.125000 0.000000 0.000000 
-0.647422 18.312047 5.671976 -0.584006 -3.296294 1.075135 -13.653037 -9.318461 -3.197310 0.500678 6.423570 21.388710 -1.346850 11.250802 -19.653894 7.865400 -16.019300 -52.076300 2.888449 1.904630 -1.658211 0.053457 0.719533 1.419046 0.309760 -0.884067 5.783213 0.000000 0.000000 0.000000 -8.342715 3.113423 23.210677 0.111475 2.014047 -13.910133 5.361749 -5.470217 31.088773 0.593900 -1.682100 10.119900 -92.185337 6.858652 27.937559 24.170343 -33.210347 -6.037757 0.441021 -0.026839 11.882608 -7.125000 0.000000 0.000000 96.230549 -13.667409 20.044629 -34.573701 42.185973 -10.507069 0.742077 -3.132403 11.015883 7.125000 0.000000 0.000000 
-0.648108 18.312342 5.670506 -0.562224 -3.266869 1.058915 -13.668013 -9.328284 -3.199445 0.502167 6.421870 21.389603 -1.344218 11.231827 -19.630666 7.861300 -16.016300 -52.061600 2.887126 1.905212 -1.656134 0.053434 0.720848 1.419333 0.310111 -0.882892 5.783866 0.000000 0.000000 0.000000 -8.346011 3.103957 23.313956 0.133898 2.012141 -13.902747 5.318803 -5.470570 31.005940 0.579800 -1.688900 10.100300 -92.196936 6.833376 27.893224 24.155065 -33.197432 -6.034038 0.442775 -0.034578 11.942997 -7.125000 0.000000 0.000000 96.234436 -13.637065 20.115078 -34.590070 42.175203 -10.452506 0.854103 -3.130152 11.099473 7.125000 0.000000 0.000000 
-0.648697 18.313126 5.668937 -0.565788 -3.241222 1.058388 -13.670903 -9.341522 -3.217549 0.505213 6.422442 21.399298 -1.353689 11.244331 -19.573854 7.880800 -16.030900 -52.132100 2.887713 1.905135 -1.654761 0.053199 0.721335 1.419211 0.310191 -0.882694 5.784516 0.000000 0.000000 0.000000 -8.224233 3.081482 23.419232 0.146826 2.011606 -13.892356 5.066991 -5.426287 30.885240 0.514300 -1.701400 10.060100 -92.234842 6.790407 27.874081 24.115109 -33.157172 -6.017919 0.445230 -0.036405 11.953608 -7.125000 0.000000 0.000000 96.212582 -13.600308 20.163359 -34.610473 42.181238 -10.429916 0.920770 -3.127192 11.131985 7.125000 0.000000 0.000000 
